<svg width="710" height="710" viewBox="0 0 710 710" xmlns="http://www.w3.org/2000/svg">
  <path d="M354.667 0.666626C159.04 0.666626 0 159.707 0 355.333C0 550.96 159.04 710 354.667 710C550.293 710 709.333 550.96 709.333 355.333C709.333 159.707 550.293 0.666626 354.667 0.666626ZM354.667 678.64C176.213 678.64 31.36 533.787 31.36 355.333C31.36 176.88 176.213 32.0266 354.667 32.0266C533.12 32.0266 677.973 176.88 677.973 355.333C677.973 533.787 533.12 678.64 354.667 678.64Z" />
  <path d="M481.6 158.96L285.973 244.08C266.561 252.294 251.624 267.225 243.411 286.643L158.291 482.269C149.332 502.431 153.811 524.832 169.489 540.509C179.942 550.962 192.634 556.192 206.822 556.192C214.291 556.192 221.01 554.697 227.729 551.713L423.355 466.593C442.767 458.379 457.705 443.447 465.918 424.03L551.043 228.403C560.002 208.242 555.522 185.841 539.845 170.163C524.908 154.481 501.763 150.002 481.6 158.96V158.96ZM522.668 215.709L437.548 411.336C432.319 423.284 422.616 432.987 410.668 438.216L215.041 523.336C202.349 528.565 193.391 521.096 191.145 518.857C188.906 516.617 181.437 507.659 186.666 494.961L271.786 299.334C277.015 287.386 286.718 277.683 298.666 272.454L494.293 187.334C497.277 185.839 500.267 185.094 503.251 185.094C510.72 185.094 516.689 189.574 518.183 191.813C520.428 194.053 527.897 203.016 522.668 215.709H522.668Z" />
  <path d="M310.613 311.28C286.717 335.176 286.717 374.749 310.613 398.64C322.561 410.588 338.239 416.561 354.665 416.561C371.092 416.561 386.769 410.587 398.717 398.64C410.665 386.692 416.639 371.015 416.639 354.588C416.639 338.161 409.92 322.484 398.717 310.536C374.077 287.385 335.253 287.385 310.613 311.281V311.28ZM376.316 376.983C364.368 388.931 344.956 388.931 332.264 376.983C320.316 365.035 320.316 345.623 332.264 332.931C338.238 326.957 346.452 323.972 353.915 323.972C361.383 323.972 369.597 326.957 375.565 332.931C381.539 338.905 384.524 346.368 384.524 354.581C385.279 363.545 382.289 371.013 376.315 376.983H376.316Z" />
</svg>
